<svg width="25" height="24" viewBox="0 0 25 24" fill="none" xmlns="http://www.w3.org/2000/svg">
<g id="domain-plus">
<path id="Vector" d="M12.8594 7V3H2.85938V21H14.2094C13.976 20.3591 13.8575 19.6821 13.8594 19H12.8594V17H14.2094C14.3607 16.5338 14.5797 16.0925 14.8594 15.69V15H12.8594V13H14.8594V11H12.8594V9H20.8594V13.09C21.566 13.1996 22.245 13.4441 22.8594 13.81V7M6.85938 19H4.85938V17H6.85938M6.85938 15H4.85938V13H6.85938M6.85938 11H4.85938V9H6.85938M6.85938 7H4.85938V5H6.85938M10.8594 19H8.85938V17H10.8594M10.8594 15H8.85938V13H10.8594M10.8594 11H8.85938V9H10.8594M10.8594 7H8.85938V5H10.8594M16.8594 13H18.8594V11H16.8594M16.8594 11V13H18.8594V11M16.8594 11V13H18.8594V11M20.8594 15V18H23.8594V20H20.8594V23H18.8594V20H15.8594V18H18.8594V15H20.8594Z" fill="#1669BB"/>
</g>
</svg>
