<svg width="25" height="24" viewBox="0 0 25 24" fill="none" xmlns="http://www.w3.org/2000/svg">
<g id="aod">
<path id="Vector" d="M17.9392 1.01L7.93921 1C6.83921 1 5.93921 1.9 5.93921 3V21C5.93921 22.1 6.83921 23 7.93921 23H17.9392C19.0392 23 19.9392 22.1 19.9392 21V3C19.9392 1.9 19.0392 1.01 17.9392 1.01ZM17.9392 21H7.93921V20H17.9392V21ZM17.9392 18H7.93921V6H17.9392V18ZM17.9392 4H7.93921V3H17.9392V4ZM8.93921 10H16.9392V11.5H8.93921V10ZM9.93921 13H15.9392V14.5H9.93921V13Z" fill="white"/>
</g>
</svg>
