<svg width="25" height="24" viewBox="0 0 25 24" fill="none" xmlns="http://www.w3.org/2000/svg">
<g clip-path="url(#clip0_12831_11529)">
<path d="M19.7397 17V19H7.73975V17C7.73975 17 7.73975 13 13.7397 13C19.7397 13 19.7397 17 19.7397 17ZM16.7397 8C16.7397 7.40666 16.5638 6.82664 16.2342 6.33329C15.9045 5.83994 15.436 5.45543 14.8878 5.22836C14.3396 5.0013 13.7364 4.94189 13.1545 5.05765C12.5725 5.1734 12.038 5.45912 11.6184 5.87868C11.1989 6.29824 10.9131 6.83279 10.7974 7.41473C10.6816 7.99667 10.741 8.59987 10.9681 9.14805C11.1952 9.69623 11.5797 10.1648 12.073 10.4944C12.5664 10.8241 13.1464 11 13.7397 11C14.5354 11 15.2985 10.6839 15.8611 10.1213C16.4237 9.55871 16.7397 8.79565 16.7397 8ZM19.9397 13.06C20.4864 13.5643 20.9271 14.1724 21.2361 14.8489C21.5452 15.5254 21.7164 16.2566 21.7397 17V19H24.7397V17C24.7397 17 24.7397 13.55 19.9397 13.06ZM18.7397 5C18.4376 5.00018 18.1373 5.04741 17.8497 5.14C18.4348 5.97897 18.7485 6.97718 18.7485 8C18.7485 9.02282 18.4348 10.021 17.8497 10.86C18.1373 10.9526 18.4376 10.9998 18.7397 11C19.5354 11 20.2985 10.6839 20.8611 10.1213C21.4237 9.55871 21.7397 8.79565 21.7397 8C21.7397 7.20435 21.4237 6.44129 20.8611 5.87868C20.2985 5.31607 19.5354 5 18.7397 5ZM8.73975 10H5.73975V7H3.73975V10H0.739746V12H3.73975V15H5.73975V12H8.73975V10Z" fill="white"/>
</g>
<defs>
<clipPath id="clip0_12831_11529">
<rect width="24" height="24" fill="white" transform="translate(0.739746)"/>
</clipPath>
</defs>
</svg>