<svg width="25" height="24" viewBox="0 0 25 24" fill="none" xmlns="http://www.w3.org/2000/svg">
<g clip-path="url(#clip0_12831_11543)">
<path d="M15.997 16.8H15.4116C13.6443 16.8 12.2116 18.2326 12.2116 19.9999H3.57923V11.7175H0.459229L10.8592 2.3999L19.131 9.81082C18.8472 9.74515 18.5516 9.71045 18.2479 9.71045C16.0929 9.71045 14.3459 11.4574 14.3459 13.6124C14.3459 14.929 14.9981 16.0934 15.997 16.8Z" fill="#1669BB"/>
<path fill-rule="evenodd" clip-rule="evenodd" d="M21.1739 13.8076C21.1739 12.4069 20.0384 11.2714 18.6377 11.2714C17.2369 11.2714 16.1014 12.4069 16.1014 13.8076C16.1014 15.2084 17.2369 16.3439 18.6377 16.3439C20.0384 16.3439 21.1739 15.2084 21.1739 13.8076ZM23.7105 20.1482C23.7105 18.747 21.4405 17.612 18.638 17.612C15.8354 17.612 13.5655 18.747 13.5655 20.1482V21.4164H23.7105V20.1482Z" fill="#1669BB"/>
</g>
<defs>
<clipPath id="clip0_12831_11543">
<rect width="24" height="24" fill="white" transform="translate(0.0592041)"/>
</clipPath>
</defs>
</svg>
