<svg width="25" height="24" viewBox="0 0 25 24" fill="none" xmlns="http://www.w3.org/2000/svg">
<path d="M17.219 21L14.469 18L15.629 16.84L17.219 18.43L20.809 14.84L21.969 16.25M13.019 21H5.21899C4.10899 21 3.21899 20.11 3.21899 19V5C3.21899 3.89 4.10899 3 5.21899 3H19.219C20.329 3 21.219 3.89 21.219 5V12.8C20.609 12.45 19.939 12.2 19.219 12.08V5H5.21899V19H12.299C12.419 19.72 12.669 20.39 13.019 21ZM12.219 17H7.21899V15H12.219M14.899 13H7.21899V11H17.219V12.08C16.369 12.22 15.589 12.54 14.899 13ZM17.219 9H7.21899V7H17.219" fill="#1669BB"/>
</svg>
