<svg width="25" height="24" viewBox="0 0 25 24" fill="none" xmlns="http://www.w3.org/2000/svg">
<g id="domain_add">
<path id="Vector" d="M11.8594 6V2H1.85938V20H15.8594V18H11.8594V16H13.8594V14H11.8594V12H13.8594V10H11.8594V8H19.8594V14H21.8594V6H11.8594ZM5.85938 18H3.85938V16H5.85938V18ZM5.85938 14H3.85938V12H5.85938V14ZM5.85938 10H3.85938V8H5.85938V10ZM5.85938 6H3.85938V4H5.85938V6ZM9.85938 18H7.85938V16H9.85938V18ZM9.85938 14H7.85938V12H9.85938V14ZM9.85938 10H7.85938V8H9.85938V10ZM9.85938 6H7.85938V4H9.85938V6ZM23.8594 18V20H21.8594V22H19.8594V20H17.8594V18H19.8594V16H21.8594V18H23.8594ZM17.8594 10H15.8594V12H17.8594V10ZM17.8594 14H15.8594V16H17.8594V14Z" fill="white"/>
</g>
</svg>
